<svg xmlns="http://www.w3.org/2000/svg" viewBox="0 0 80 98">
<defs><linearGradient id="cape" x2=".8" y2="1"><stop stop-color="#3a8584"/><stop offset=".5" stop-color="#226368"/><stop offset="1" stop-color="#123c48"/></linearGradient><linearGradient id="leather" x2=".5" y2="1"><stop stop-color="#a86e41"/><stop offset="1" stop-color="#563522"/></linearGradient></defs>
<ellipse cx="40" cy="87" rx="23" ry="6" fill="#163d3b" opacity=".28"/><g>
<g transform="translate(0 -3.5)">
<path d="M27 63 Q23.5 72 25.5 81 L31 79 35 64Z" fill="#573923" stroke="#382b20" stroke-width="2"/>
<path d="M47 64 Q56.5 71 54.5 82 L50 79 44 65Z" fill="#573923" stroke="#382b20" stroke-width="2"/>
<path d="M28 40 Q8.1 51 12.1 76 Q31 86 42 76 Q54 85 58.1 75 Q60 49 52 40Z" fill="url(#cape)" stroke="#133c43" stroke-width="3"/>
<path d="M24 58 Q36 71 56 60" fill="none" stroke="#8db0a2" stroke-opacity=".3" stroke-width="2"/>
<path d="M27 27 Q40 17 54 28 L55 45 Q42 53 25 44Z" fill="url(#leather)" stroke="#4a3222" stroke-width="3"/>
<path d="M27 42 Q38 50 53 42 L49 70 Q39 76 30 70Z" fill="#24555c" opacity=".58"/>
<path d="M30 44 L35 53 33 66 M51 43 L45 53 47 66" fill="none" stroke="#d9b980" stroke-width="3"/>
<path d="M25 43 Q18.7 49 20 61 L27 63 31 47Z M54 44 Q61.3 49 61 62 L53 64 49 48Z" fill="#b27d4f" stroke="#59402a" stroke-width="2"/>
<path d="M28 25 Q40 14 54 26 L54 42 Q41 51 26 42Z" fill="#a8774e" stroke="#563b2c" stroke-width="3"/><path d="M30 31 Q43 36 51 31 L49 41 Q39 45 31 40Z" fill="#d8be97"/><path d="M26 27 Q28 8 43 9 Q54 12 57 29 Q46 21 26 30Z" fill="#3c3430" stroke="#292929" stroke-width="3"/><path d="M33 16 Q43 8 53 23" fill="none" stroke="#806c51" stroke-width="3"/>
<path d="M54 45 Q66 40 68 49 L67 63 Q61 71 53 63Z" fill="#b98952" stroke="#5d422c" stroke-width="3"/>
<path d="M56 51 L67 51 M56 59 L66 59" stroke="#e5c590" stroke-width="2"/>
</g></g></svg>